{"title":"Christian Petzold - Yella (2007)","uid":7650607,"size":1409432156,"categoryP":"video","categoryS":"movies","magnet":"?xt=urn:btih:42f7ce9582ecfdee8b81538e87258d571e011fc7&amp;dn=Christian+Petzold+-+Yella+%282007%29&amp;tr=udp%3A%2F%2Ftracker.openbittorrent.com%3A80&amp;tr=udp%3A%2F%2Fopen.demonii.com%3A1337&amp;tr=udp%3A%2F%2Ftracker.coppersurfer.tk%3A6969&amp;tr=udp%3A%2F%2Fexodus.desync.com%3A6969","seeders":6,"leechers":2,"uploader":"rpessoa","files":4,"time":1348011017,"description":"Yella is estranged from her possessive and violent husband; but he can't quite bring himself to give her up. When their fraught interaction finally comes to dramatic conclusion, Yella's life takes an odd shift.\n\n\nGeneral\nComplete name                            : Yella.2007.DVDRip.XviD.avi\nFormat                                   : AVI\nFormat/Info                              : Audio Video Interleave\nFile size                                : 1.31 GiB\nDuration                                 : 1h 25mn\nOverall bit rate                         : 2 190 Kbps\nWriting application                      : VirtualDubMod 1.5.10.2 (build 2540/release)\nWriting library                          : VirtualDubMod build 2540/release\n\nVideo\nID                                       : 0\nFormat                                   : MPEG-4 Visual\nFormat profile                           : Advanced Simple@L5\nFormat settings, BVOP                    : 1\nFormat settings, QPel                    : No\nFormat settings, GMC                     : No warppoints\nFormat settings, Matrix                  : Default (MPEG)\nCodec ID                                 : XVID\nCodec ID/Hint                            : XviD\nDuration                                 : 1h 25mn\nBit rate                                 : 1 860 Kbps\nWidth                                    : 704 pixels\nHeight                                   : 384 pixels\nDisplay aspect ratio                     : 1.85:1\nFrame rate                               : 25.000 fps\nColor space                              : YUV\nChroma subsampling                       : 4:2:0\nBit depth                                : 8 bits\nScan type                                : Progressive\nCompression mode                         : Lossy\nBits/(Pixel*Frame)                       : 0.275\nStream size                              : 1.11 GiB (85%)\nWriting library                          : XviD 64\n\nAudio\nID                                       : 1\nFormat                                   : AC-3\nFormat/Info                              : Audio Coding 3\nMode extension                           : CM (complete main)\nFormat settings, Endianness              : Big\nCodec ID                                 : 2000\nDuration                                 : 1h 25mn\nBit rate mode                            : Constant\nBit rate                                 : 320 Kbps\nChannel(s)                               : 2 channels\nChannel positions                        : Front: L R\nSampling rate                            : 48.0 KHz\nBit depth                                : 16 bits\nCompression mode                         : Lossy\nStream size                              : 196 MiB (15%)\nAlignment                                : Split accross interleaves\nInterleave, duration                     : 40 ms (1.00 video frame)\nInterleave, preload duration             : 500 ms\n\nMy rip.","torrent":{"xt":"urn:btih:42f7ce9582ecfdee8b81538e87258d571e011fc7","amp;dn":"Christian+Petzold+-+Yella+%282007%29","amp;tr":["udp%3A%2F%2Ftracker.openbittorrent.com%3A80","udp%3A%2F%2Fopen.demonii.com%3A1337","udp%3A%2F%2Ftracker.coppersurfer.tk%3A6969","udp%3A%2F%2Fexodus.desync.com%3A6969"],"infoHash":"42f7ce9582ecfdee8b81538e87258d571e011fc7","infoHashBuffer":{"type":"Buffer","data":[66,247,206,149,130,236,253,238,139,129,83,142,135,37,141,87,30,1,31,199]},"announce":[],"urlList":[]}}